<?xml version="1.0" encoding="UTF-8"?>
<!DOCTYPE svg PUBLIC "-//W3C//DTD SVG 1.1//EN" "http://www.w3.org/Graphics/SVG/1.1/DTD/svg11.dtd">
<!-- Creator: CorelDRAW 2018 (64 bitů) -->
<svg xmlns="http://www.w3.org/2000/svg" xml:space="preserve" width="135.45mm" height="135.45mm" version="1.1" style="shape-rendering:geometricPrecision; text-rendering:geometricPrecision; image-rendering:optimizeQuality; fill-rule:evenodd; clip-rule:evenodd"
viewBox="0 0 13545 13545"
 xmlns:xlink="http://www.w3.org/1999/xlink">
 <defs>
  <style type="text/css">
   <![CDATA[
    .fil0 {fill:black}
   ]]>
  </style>
 </defs>
 <g id="Vrstva_x0020_1">
  <metadata id="CorelCorpID_0Corel-Layer"/>
  <g id="_2178353250992">
   <path class="fil0" d="M529.12 12671.97l0 -11798.93c0,-225.78 118.14,-343.92 343.92,-343.92l8941.79 0c225.77,0 343.91,118.14 343.91,343.92l0 11798.93c0,225.77 -118.14,343.91 -343.91,343.91l-8941.79 0c-225.78,0 -343.92,-118.14 -343.92,-343.91zm-529.1 -11904.75l0 12010.57c0,404.36 362.83,767.19 767.2,767.19l9179.88 0c363.79,0 740.74,-379.28 740.74,-740.74l0 -12037.02c0,-404.37 -362.83,-767.2 -767.19,-767.2l-9153.43 0c-404.37,0 -767.2,362.83 -767.2,767.2z"/>
   <path class="fil0" d="M12222.23 11904.77l634.92 0 -343.91 687.83 -291.01 -687.83zm-158.73 -9444.43c0,-149.87 58.73,-262.99 133.6,-342.59l134.84 -103.26c349.6,-166.56 683.94,84.19 683.94,498.76l0 211.64 -952.38 0 0 -264.55zm-529.1 -105.82l0 3968.25c0,319.57 529.1,319.57 529.1,0l0 -3042.33 952.38 0 0 8095.23 -952.38 0 0 -2724.86c0,-319.58 -529.1,-319.58 -529.1,0l0 3015.87 652.68 1490.17c116.45,230.9 98.35,388.13 379.07,388.13 209.67,0 253.47,-231.95 326.34,-387.94 80.93,-173.23 145.54,-315.94 221.62,-492.67 64.79,-150.51 430.87,-900.84 430.87,-997.69l0 -9312.16c0,-247.13 -164.91,-511.6 -289.63,-636.3 -632.8,-632.75 -1720.95,-152.16 -1720.95,636.3z"/>
   <path class="fil0" d="M1428.59 9497.37c0,313.19 497.03,548.57 714.29,873.01 -217.26,324.44 -714.29,559.82 -714.29,873.02 0,169.27 129.22,238.09 291.01,238.09 208.14,0 566.55,-544.5 820.1,-714.28 324.44,217.25 559.82,714.28 873.02,714.28 169.27,0 238.09,-129.22 238.09,-291 0,-208.15 -544.5,-566.56 -714.28,-820.11 217.25,-324.44 714.28,-559.82 714.28,-873.01 0,-169.28 -129.22,-238.1 -291,-238.1 -208.15,0 -566.56,544.5 -820.11,714.29 -324.44,-217.26 -559.82,-714.29 -873.01,-714.29 -130.76,0 -238.1,107.34 -238.1,238.1z"/>
   <path class="fil0" d="M1428.59 5899.49c0,313.19 497.03,548.57 714.29,873.01 -217.26,324.44 -714.29,559.82 -714.29,873.02 0,169.27 129.22,238.09 291.01,238.09 208.14,0 566.55,-544.5 820.1,-714.28 324.44,217.25 559.82,714.28 873.02,714.28 169.27,0 238.09,-129.22 238.09,-291 0,-208.15 -544.5,-566.56 -714.29,-820.11 217.26,-324.44 714.29,-559.82 714.29,-873.01 0,-169.28 -129.22,-238.1 -291,-238.1 -208.15,0 -566.56,544.5 -820.11,714.29 -324.44,-217.26 -559.82,-714.29 -873.01,-714.29 -130.76,0 -238.1,107.34 -238.1,238.1z"/>
   <path class="fil0" d="M4814.83 7592.61c0,161.78 68.82,291 238.1,291l3968.25 0c319.57,0 319.57,-529.1 0,-529.1l-3968.25 0c-130.76,0 -238.1,107.34 -238.1,238.1z"/>
   <path class="fil0" d="M4814.83 11190.49c0,161.78 68.82,291 238.1,291l3968.25 0c319.57,0 319.57,-529.1 0,-529.1l-3968.25 0c-130.76,0 -238.1,107.34 -238.1,238.1z"/>
   <path class="fil0" d="M4814.83 3994.73c0,161.78 68.82,291 238.1,291l3968.25 0c319.57,0 319.57,-529.1 0,-529.1l-3968.25 0c-130.76,0 -238.1,107.34 -238.1,238.1z"/>
   <path class="fil0" d="M2248.7 3624.36c-200.49,-134.26 -301.08,-423.28 -582.01,-423.28 -169.28,0 -238.1,129.22 -238.1,291 0,146.93 646.72,793.65 793.65,793.65 219.53,0 284.75,-139.25 443.12,-297.62l687.83 -687.83c158.37,-158.37 297.62,-223.59 297.62,-443.12 0,-169.28 -129.22,-238.09 -291,-238.09 -211.37,0 -818.81,809.55 -1111.11,1005.29z"/>
   <path class="fil0" d="M4814.83 2301.61c0,161.78 68.82,291 238.1,291l1798.94 0c319.57,0 319.57,-529.1 0,-529.1l-1798.94 0c-130.76,0 -238.1,107.34 -238.1,238.1z"/>
   <path class="fil0" d="M4814.83 5899.49c0,161.78 68.82,291 238.1,291l1798.94 0c319.57,0 319.57,-529.1 0,-529.1l-1798.94 0c-130.76,0 -238.1,107.34 -238.1,238.1z"/>
   <path class="fil0" d="M4814.83 9497.37c0,161.78 68.82,291 238.1,291l1798.94 0c319.57,0 319.57,-529.1 0,-529.1l-1798.94 0c-130.76,0 -238.1,107.34 -238.1,238.1z"/>
   <path class="fil0" d="M7777.79 5925.94c0,142.88 130.95,264.55 211.64,264.55l1031.75 0c319.57,0 319.57,-529.1 0,-529.1l-1031.75 0c-80.69,0 -211.64,121.67 -211.64,264.55z"/>
   <path class="fil0" d="M7777.79 2328.06c0,142.88 130.95,264.55 211.64,264.55l1031.75 0c319.57,0 319.57,-529.1 0,-529.1l-1031.75 0c-80.69,0 -211.64,121.67 -211.64,264.55z"/>
   <path class="fil0" d="M7777.79 9523.82c0,142.88 130.95,264.55 211.64,264.55l1031.75 0c319.57,0 319.57,-529.1 0,-529.1l-1031.75 0c-44.09,0 -122.83,58.63 -148.23,89.87 -32.31,39.73 -63.41,111.45 -63.41,174.68z"/>
   <path class="fil0" d="M11534.4 7460.33c0,395.67 529.1,395.67 529.1,0 0,-319.58 -529.1,-319.58 -529.1,0z"/>
  </g>
 </g>
</svg>
