<?xml version="1.0" encoding="iso-8859-1"?>
<!-- Generator: Adobe Illustrator 18.0.0, SVG Export Plug-In . SVG Version: 6.00 Build 0)  -->
<!DOCTYPE svg PUBLIC "-//W3C//DTD SVG 1.1//EN" "http://www.w3.org/Graphics/SVG/1.1/DTD/svg11.dtd">
<svg version="1.1" id="Capa_1" xmlns="http://www.w3.org/2000/svg" xmlns:xlink="http://www.w3.org/1999/xlink" x="0px"
     y="0px"
     viewBox="0 0 60 60" style="enable-background:new 0 0 60 60;" xml:space="preserve">
<defs>
	<style type="text/css">
		.st0{fill:#ffffff;}
	</style>
    <linearGradient id="gradient" x1="0%" y1="0%" x2="100%" y2="0%">
        <stop offset="0%" style="stop-color:#30ff96;stop-opacity:1"/>
        <stop offset="7%" style="stop-color:#27ca77;stop-opacity:1"/>
        <stop offset="100%" style="stop-color:#0c9488;stop-opacity:1"/>
    </linearGradient>
</defs>
    <g>
	<path fill="url(#gradient)" d="M29,25.882l26.482-13.241L29.434,0.099c-0.284-0.137-0.615-0.132-0.895,0.014l-25,13c-0.011,0.006-0.018,0.015-0.029,0.021
		c-0.001,0.001-0.002,0.001-0.003,0.002L29,25.882z"/>
        <path fill="url(#gradient)" d="M30,27.618V60c0.138,0,0.272-0.038,0.401-0.094c0.015-0.007,0.032-0.004,0.046-0.011l26-13C56.786,46.725,57,46.379,57,46
		V14.119L30,27.618z"/>
        <path fill="url(#gradient)" d="M28,27.618l-25-12.5V46c0,0.379,0.214,0.725,0.553,0.895L28,59.119V27.618z"/>
</g>
    <g>
</g>
    <g>
</g>
    <g>
</g>
    <g>
</g>
    <g>
</g>
    <g>
</g>
    <g>
</g>
    <g>
</g>
    <g>
</g>
    <g>
</g>
    <g>
</g>
    <g>
</g>
    <g>
</g>
    <g>
</g>
    <g>
</g>
</svg>
