<?xml version="1.0" encoding="UTF-8"?>
<!DOCTYPE svg PUBLIC "-//W3C//DTD SVG 1.1//EN" "http://www.w3.org/Graphics/SVG/1.1/DTD/svg11.dtd">
<!-- Creator: CorelDRAW 2018 (64 bitů) -->
<svg xmlns="http://www.w3.org/2000/svg" xml:space="preserve" width="129.13mm" height="127.447mm" version="1.1" style="shape-rendering:geometricPrecision; text-rendering:geometricPrecision; image-rendering:optimizeQuality; fill-rule:evenodd; clip-rule:evenodd"
viewBox="0 0 12913 12744.7"
 xmlns:xlink="http://www.w3.org/1999/xlink">
 <defs>
  <style type="text/css">
   <![CDATA[
    .fil0 {fill:black}
   ]]>
  </style>
 </defs>
 <g id="Vrstva_x0020_1">
  <metadata id="CorelCorpID_0Corel-Layer"/>
  <path class="fil0" d="M9003.79 6061.24l0 0zm3909.2 404.21l0 127.12c-31.64,219.67 -245.45,382.81 -791.77,518.01 -651.47,161.22 -1155.07,210.78 -1841.99,96.41 -1229.79,-204.77 -1544.4,-700.81 -2430.26,-924.1 -956.21,-241.02 -1798.07,-237.83 -2729.49,131.12 -666.31,263.93 -697.04,371.38 -1159.83,681.28 35.66,153.06 537.01,1093.46 634.06,1333.16 91.19,225.24 229.6,437.56 320.79,662.81 120.36,297.25 505.26,1002.78 637.59,1329.62 91.2,225.24 229.6,437.57 320.8,662.81 105.12,259.62 608.83,1163.32 608.83,1358.38 0,178.56 -137.97,302.65 -277.43,302.65 -263.87,0 -317.22,-147.51 -453.64,-454.3 -30.91,-69.53 -46.99,-119.19 -84.09,-193.34 -696.75,-1392.53 -1361.13,-2872.82 -2051.59,-4253.58 -38.16,-76.31 -65.53,-125.09 -101,-201.64l-2690.08 -5607.52c-129.86,-259.3 -243.77,-512.52 -369.91,-765.03 -168.4,-337.1 -78.76,-196 -256.33,-323.74 -95.62,-68.78 -197.64,-197.12 -197.64,-357.21 0,-693.94 1003.36,-594.24 909.01,54.09 -15.44,106.11 -28.73,57.02 5.59,140.44 39.61,96.29 93.96,150.06 119.45,259.44 174.92,-117.13 385.66,-287.68 588.27,-395.34 1551.96,-824.71 3152.23,-870.1 4733.31,-83.87 147.84,73.52 279.66,161.25 432.22,223.52 2673.29,1091.07 3160.57,-783.15 3718.52,568.98 108.26,262.36 238.81,462.23 342.05,717.22l1736.68 3610.1c160.16,319.3 301.71,573.98 327.88,782.51zm-2774.27 -1463.48c351.31,0 1047.6,-63.05 1336.69,-201.76 24.38,104.64 131.3,288.11 185.14,394.93l384.29 801.08c55.74,135.05 160.25,302.47 187.19,418.11 -297.15,142.58 -884.7,226.99 -1336.69,226.99 -30.61,-131.36 -613.34,-1318.69 -756.62,-1639.35zm-7187.89 -50.44c48.03,-12.82 478.62,-354.23 672.99,-461.94 156.31,-86.62 597.4,-340.83 789.81,-345.12 27.52,118.15 127.93,271.21 180.08,400 82.83,204.58 540.98,1064.73 551.32,1188.9 -467.72,224.42 -486.88,138.28 -1140.14,549.65 -93.41,58.82 -266.23,210.39 -347.88,232.19 -63.4,-272.13 -700.75,-1366.91 -706.18,-1563.68zm6052.96 1109.71c-18.56,-4.32 -608.97,-269.65 -860.44,-350.16 -144.92,-46.4 -340.72,-92.7 -482.27,-123.02 -89.72,-19.22 -472.74,-66.08 -512.13,-93.17 -52.21,-35.91 -182.11,-323.04 -212.93,-392.36 -66.87,-150.38 -118.73,-262.77 -193.73,-411.56l-386.67 -823.93c626.18,52.11 1434.3,317.75 1843.72,577.47 146.76,93.09 347.15,627.7 426.24,784.35 68.38,135.46 351.6,718.18 378.21,832.38zm-1513.24 -3329.13c103.33,24.08 248.59,111.48 370.77,158.87 399.41,154.91 890.47,295.11 1344.23,295.11 73.68,139.24 797.06,1614.24 832.28,1765.44 -421.51,-98.2 -758.65,-38.39 -1412.45,-352.99 -370.66,-178.35 -312.05,-86.28 -547.47,-637.9l-587.36 -1228.53zm-151.33 -151.32l0 0zm-3757.88 -277.43c630.99,-147 800.87,-252.2 1588.91,-252.2 367.03,0 232.57,-22.7 554.48,630.89l319.81 663.79c68.06,135.37 176.25,325.06 210.19,470.76 -396.07,0 -608.07,-22.69 -973.64,35.19 -219.25,34.71 -692.16,132.9 -867.46,217.02 -37.12,-159.32 -328.69,-682.99 -410.82,-875.44l-421.47 -890.01zm5018.92 -529.63c281.31,-23.41 1019.4,-149.39 1286.25,-277.43 24.48,105.07 438.24,905.06 511.7,1077.2 49.75,116.56 146.17,286.51 169.26,385.6 -317.47,152.33 -972.92,176.54 -1336.7,176.54 -20.94,-89.88 -99.66,-231.18 -144.03,-335.15l-486.48 -1026.76zm-7263.55 -151.33c143.83,-214.79 1191.19,-782.36 1488.01,-807.06 23.33,100.1 117.43,260.76 168.19,361.45 64.42,127.81 103.62,233.79 168.04,361.59l344.73 739.76c-427.42,205.09 -472.28,161.68 -953.27,484.31l-509.53 373.19 -706.17 -1513.24zm6002.51 958.39c-273.31,-144.62 -524.25,-255.51 -847.71,-362.88 -263.82,-87.58 -687.06,-191.97 -1018.62,-191.97 -113.37,-214.27 -206.1,-439.12 -319.51,-664.1 -58.92,-116.9 -92.37,-211.62 -151.08,-328.11 -49.78,-98.75 -136.86,-245.51 -159.92,-344.49l832.33 252.16c265.25,105.36 491.93,233.33 748.16,361.54 511.8,256.09 340.43,52.8 571.69,512.8l344.66 765.05z"/>
 </g>
</svg>
