<?xml version="1.0" encoding="UTF-8"?>
<!DOCTYPE svg PUBLIC "-//W3C//DTD SVG 1.1//EN" "http://www.w3.org/Graphics/SVG/1.1/DTD/svg11.dtd">
<!-- Creator: CorelDRAW 2018 (64 bitů) -->
<svg xmlns="http://www.w3.org/2000/svg" xml:space="preserve" width="98.805mm" height="106.8mm" version="1.1" style="shape-rendering:geometricPrecision; text-rendering:geometricPrecision; image-rendering:optimizeQuality; fill-rule:evenodd; clip-rule:evenodd"
viewBox="0 0 9880.5 10680"
 xmlns:xlink="http://www.w3.org/1999/xlink">
 <defs>
  <style type="text/css">
   <![CDATA[
    .fil0 {fill:black}
   ]]>
  </style>
 </defs>
 <g id="Vrstva_x0020_1">
  <metadata id="CorelCorpID_0Corel-Layer"/>
  <g id="_2177961681344">
   <path class="fil0" d="M83.63 4964.53c0,247.74 120.25,404.33 271.98,499.81l959.88 583.72c288.69,172.72 617.26,448.39 922.85,132.51 161.76,-167.21 162.23,-449.8 -0.26,-617.06 -42.46,-43.7 -65.78,-64.34 -110.23,-98.36l-542.35 -479.76c139.63,-93.5 258.83,-220.82 396.33,-312.89 -7.5,90.16 -39.65,220.05 -41.72,312.89l435.78 336.02c395.11,324.62 348.8,925.73 -19.02,1165.43 -253.57,165.25 -416.85,101.21 -625.35,83.86l-139.46 715.78c-21.89,105.64 -42.98,114.39 -119.59,172.45l-1082.41 920.08c-269.6,226.51 -520.67,546.94 -313.9,973.46 147.09,303.43 332.68,368.66 667.09,480.17 304.37,101.48 2373.66,847.36 2594.44,847.36 500.91,0 793.26,-424.59 668.47,-877.06 -78.55,-284.79 -295.44,-381.18 -540.56,-481.55l-1108.3 -456.16c34.71,-51.83 727.38,-542.34 730.08,-542.34 133.91,0 4794.57,1418.36 5302.83,1559.9 137.23,38.21 247.47,75.56 384.29,116.34 97.73,29.12 305.74,96.81 403.81,96.81 737.02,0 1000.96,-982.87 264.4,-1307.37l-1424.84 -515.08c-775.38,-261.45 -1682.24,-628.1 -2440.32,-876.32 -118.72,-38.88 -727.28,-276.29 -821.42,-284.12l375.46 -2503.13c147.56,0 311.2,40.85 441.51,59.12 154.35,21.64 291.62,45.5 435.71,64.92l2648.02 397.45c148.48,0 303.97,-78.4 387.04,-155.31 305.89,-283.17 222.8,-864.89 -301.53,-973.17 -752.52,-155.42 -1670.16,-396.79 -2450.91,-573.7 -842.17,-190.84 -1631.13,-456.54 -2385.3,-618.45 -565.19,-121.34 -1659.45,-276.6 -2127.86,198 -104.7,106.08 -199.41,194.91 -302.7,302.22l-875.41 939.36c-150.31,162.5 -516.53,442.16 -516.53,714.17z"/>
   <path class="fil0" d="M2795.34 1251.56c0,346.92 42.34,550.58 233.19,830.64 30.11,44.18 31.31,43.31 63.54,82.48 88.18,107.14 33.88,67.94 153.02,159.87 42.44,32.75 53.41,46.21 92.42,74.46 61.26,44.35 118.29,80.58 194.36,118.53 887.64,442.86 1958.15,-241.93 1921.66,-1197.66 -28.12,-736.45 -573.91,-1319.88 -1281.47,-1319.88 -440.22,0 -712.31,111.31 -988.86,387.86 -221.11,221.11 -387.86,535.92 -387.86,863.7z"/>
  </g>
 </g>
</svg>
