<?xml version="1.0" encoding="UTF-8"?>
<!DOCTYPE svg PUBLIC "-//W3C//DTD SVG 1.1//EN" "http://www.w3.org/Graphics/SVG/1.1/DTD/svg11.dtd">
<!-- Creator: CorelDRAW 2018 (64 bitů) -->
<svg xmlns="http://www.w3.org/2000/svg" xml:space="preserve" width="180.6mm" height="169.357mm" version="1.1" style="shape-rendering:geometricPrecision; text-rendering:geometricPrecision; image-rendering:optimizeQuality; fill-rule:evenodd; clip-rule:evenodd"
viewBox="0 0 18060 16935.7"
 xmlns:xlink="http://www.w3.org/1999/xlink">
 <defs>
  <style type="text/css">
   <![CDATA[
    .fil0 {fill:white}
   ]]>
  </style>
 </defs>
 <g id="Vrstva_x0020_1">
  <metadata id="CorelCorpID_0Corel-Layer"/>
  <g id="_2178101321712">
   <path class="fil0" d="M0.02 13267.27l0 3209.87c0,216.3 242.26,458.56 458.55,458.56l17142.86 0c216.29,0 458.55,-242.26 458.55,-458.56l0 -3209.87c0,-216.3 -242.26,-458.56 -458.55,-458.56 -666.93,0 -1065.78,96.57 -1580.8,429.79 -505.85,327.28 -649.81,522.59 -1382.17,522.59 -985.11,0 -1385.49,-952.38 -2539.68,-952.38 -764.01,0 -1097.32,6.93 -1749.38,437.57l-542.27 339.56c-460.42,236.34 -1093.87,236.39 -1554.26,0 -870.73,-447.08 -758.04,-777.13 -2291.65,-777.13 -1224.2,0 -1426.46,952.38 -2680.78,952.38 -573.31,0 -885.17,-292.32 -1241.07,-522.59 -515.02,-333.22 -913.87,-429.79 -1580.8,-429.79 -216.29,0 -458.55,242.26 -458.55,458.56z"/>
   <path class="fil0" d="M6313.95 2614.71c0,1346.77 1305.12,1368.62 1305.12,2186.95 0,492.07 -1305.12,856.06 -1305.12,2010.58 0,214.49 78.3,538.59 151.84,694.72 77.96,165.52 229.26,377.18 349.42,497.15 345.13,344.58 803.86,502.34 803.86,995.08 0,381.34 -624.85,601.58 -1023.27,1163.68 -150.16,211.84 -250.7,488.27 -278.6,818.21 -46,543.99 618,796.17 940.9,408.46 108.41,-130.17 98.19,-194.67 133.25,-395.84 102.43,-587.59 1285.92,-887.34 1285.92,-1888.69 0,-663.42 -43.9,-872.1 -555.04,-1385 -302.28,-303.32 -1207.53,-740.92 -448.11,-1381.81 689.69,-582.04 1003.15,-765.56 1003.15,-1748.18 0,-481.71 -280.72,-790.71 -555.53,-1067.05 -349.96,-351.9 -724.66,-505.04 -738.18,-877.01 -8.04,-221.22 142.26,-399.77 281.1,-514.75 638.97,-529.2 1012.61,-783.53 1012.61,-1668.17 0,-483.04 -944.11,-781.47 -1055.4,108.62 -17.24,137.88 -2.26,116.19 -63.66,218.53 -36.06,60.11 -75.34,111.81 -123.27,158.91l-309.78 254.6c-435.72,335.59 -811.21,808.19 -811.21,1411.01z"/>
   <path class="fil0" d="M3280.44 2508.89c0,540.65 102.91,935.1 537.17,1332.32 770.81,705.06 1265.04,828 26.68,1771.21 -114.32,87.07 -286,306.46 -363.87,447.41 -384.77,696.45 -223.58,1412.74 337.62,1978.48 317.24,319.81 1244.94,771.45 475,1409.11 -96.81,80.18 -136.35,112.99 -228.34,194.93 -246.74,219.78 -383.77,294.14 -594.01,640.56 -160.18,263.93 -190.25,523.66 -190.25,832.68 0,463.94 934.42,800.01 1059.18,-104.84 96.65,-700.97 1304.14,-710.08 1304.14,-2152.65 0,-242.08 -92.09,-476.38 -175.63,-635.67 -389.58,-742.84 -1129.49,-855.98 -1129.49,-1374.91 0,-404.65 430.86,-587.48 767.29,-925.84 725.29,-729.47 724.67,-1655.38 0.29,-2381.43 -363.35,-364.19 -767.58,-479.83 -767.58,-960.81 0,-308.16 572.78,-663.23 767.97,-854.61 536.43,-525.99 915.08,-1720.35 -62.5,-1720.35 -395.56,0 -438.62,416.81 -467.59,590.62 -90.91,545.6 -1296.08,866.81 -1296.08,1913.79z"/>
   <path class="fil0" d="M12416.24 2614.71c0,509.15 232.33,984.98 619.8,1284.96 59.28,45.9 62.23,54.22 113.09,98.56 78.82,68.72 147.63,123.83 230.49,192.79 809.34,673.62 15.24,1024.19 -425.47,1466.01 -720.9,722.71 -723.53,1663.47 -18.3,2364 427.93,425.07 1254.35,795.94 457.65,1461.59 -90.97,76 -121.29,95.28 -210.14,177.87 -225.47,209.61 -376.08,270 -584.13,650.43 -159.23,291.15 -304.85,813.96 -33.68,1113.92 182.74,202.13 825.11,311.91 910.5,-378.19 62.55,-505.52 546.27,-584.71 1011.03,-1175.92 485.01,-616.97 359.5,-1579.06 -244.93,-2133.08 -338.66,-310.42 -1242.45,-811.59 -470.74,-1404.46 169,-129.83 305.88,-246.37 452.62,-393.93 428,-430.38 555.53,-660.25 555.53,-1313.97 0,-1351.3 -2056.44,-1535.65 -1014.56,-2496.04 151.14,-139.32 312.94,-239.95 459.52,-387.03 758.63,-761.24 730.66,-1737.74 25.94,-1737.74 -376.54,0 -488.14,257.03 -530.07,563.41 -43.39,317.06 -356.11,509.88 -625.71,749.95 -204.56,182.15 -173.27,87.82 -411.22,435.35 -153.02,223.5 -267.22,504.13 -267.22,861.52z"/>
   <path class="fil0" d="M9382.73 2473.62c0,1124.66 400.4,1183.02 997.22,1754.1 601.39,575.46 202.97,873.92 -438.25,1379.82 -124.99,98.61 -273.98,298.96 -363.52,447.77 -275.2,457.39 -261.1,1082.68 -7.73,1556.87 114.16,213.66 208.43,282.54 367.68,443.61 139.48,141.07 283.04,250.89 437.55,373.73 915.04,727.51 -427.5,1165.8 -792.97,1827.84 -194.93,353.11 -199.98,471.07 -199.98,858.23 0,340.17 521.66,684.94 910.6,275.68 258.07,-271.55 3.02,-439.8 331.23,-762.25 412.09,-404.86 1538.96,-1019.55 976.62,-2331.52 -211.79,-494.1 -882.93,-914.16 -1025.89,-1090.51 -275.23,-339.52 -114.53,-655.74 193.5,-913.45 166.32,-139.14 304.62,-236.61 457.29,-389.27 285.46,-285.43 519.97,-690.84 519.97,-1137.88 0,-1281.98 -1305.12,-1551.46 -1305.12,-2081.13 0,-231.41 -17.39,-250.52 214.89,-490.58l358.58 -311.62c91.88,-81.8 142.94,-105.57 230.39,-192.88 514.12,-513.29 839.76,-1685.7 -98.39,-1685.7 -339.91,0 -429.99,306.43 -477.75,580.45 -80.83,463.65 -656.36,613.61 -997.49,1118.91 -138.61,205.33 -288.43,438.56 -288.43,769.78z"/>
  </g>
 </g>
</svg>
