<?xml version="1.0" encoding="utf-8"?>

<!DOCTYPE svg PUBLIC "-//W3C//DTD SVG 1.1//EN" "http://www.w3.org/Graphics/SVG/1.1/DTD/svg11.dtd">
<!-- Uploaded to: SVG Repo, www.svgrepo.com, Generator: SVG Repo Mixer Tools -->
<svg height="800px" width="800px" version="1.1" id="_x32_" xmlns="http://www.w3.org/2000/svg" xmlns:xlink="http://www.w3.org/1999/xlink" 
	 viewBox="0 0 512 512"  xml:space="preserve">
<defs>
	<style type="text/css">
		.st0{fill:#ffffff;}
	</style>
	<linearGradient id="gradient" x1="0%" y1="0%" x2="100%" y2="0%">
        <stop offset="0%" style="stop-color:#30ff96;stop-opacity:1"/>
		<stop offset="7%" style="stop-color:#27ca77;stop-opacity:1"/>
		<stop offset="100%" style="stop-color:#0c9488;stop-opacity:1"/>
    </linearGradient>
</defs>
<g>
	<path fill="url(#gradient)" d="M228.037,364.428c-4.871-5.41-9.16-9.09-12.66-10.669c-2.028-0.915-3.777-1.346-5.993-1.364l-1.293,0.072
		l-0.233,0.018c-9.546,0.906-17.514,1.812-23.633,2.996c-6.146,1.167-10.336,2.683-12.463,4.029c-1.454,0.906-2.036,1.57-2.53,2.333
		c-0.61,0.996-1.292,2.737-1.309,6.586c-0.009,8.892-0.978,19.353-3.796,29.618c-2.862,10.193-7.429,20.512-16.366,28.12
		c-5.904,5.033-14.068,8.29-22.88,8.228c-5.886,0-13.306,0-21.462,0l-1.221,9.385c-0.592,4.531-4.746,7.725-9.268,7.133
		c-4.531-0.592-7.726-4.746-7.133-9.277l0.942-7.241c-7.779,0-15.746,0-23.444,0l-1.364,10.489
		c-0.592,4.522-4.747,7.716-9.269,7.124c-4.531-0.593-7.725-4.738-7.133-9.26l1.094-8.354c-7.708,0-14.607,0-19.963,0
		c-0.655,0.009-1.32-0.188-1.984-0.243l-0.008,0.072l-0.888-0.089l-0.081,0.206c-0.269,0.915-0.556,2.432-0.691,4.486
		c-0.422,6.057-1.875,18.295-3.4,31.323c-1.525,12.929-3.114,26.47-3.706,33.584c-0.144,1.704-0.216,2.934-0.224,3.472
		c0.152,0.233,0.61,0.789,1.74,1.489c2.36,1.525,7.591,3.338,15.765,3.302c0.852,0.018,3.544-0.18,7.026-0.602
		c3.526-0.421,7.994-1.049,13.144-1.838c10.328-1.598,23.4-3.823,37.649-6.354c28.533-5.042,61.784-11.269,87.886-15.881
		c17.46-3.086,31.521-5.455,39.596-6.352c5.563-0.646,9.96-2.324,14.032-5.33c4.047-3.024,7.896-7.59,11.342-14.643
		c6.55-13.279,10.973-35.477,11.395-67.474C243.541,383.476,235.251,372.306,228.037,364.428z"/>
	<path fill="url(#gradient)" d="M491.228,147.723c-7.635-46.145-31.116-82.646-64.709-108.11C392.908,14.185,348.978,0,300.84,0
		c-30.489,0-62.637,5.697-94.813,17.811c-70.748,26.72-109.985,70.865-132.73,113.628c-22.484,42.385-28.164,83.399-29.77,103.148
		c0.018,0.79,0.045,2.099,0.045,3.93c0,5.922-0.26,16.599-1.956,28.389c-1.651,11.09-4.432,23.077-10.282,33.629
		c0.61,0.879,1.695,2.153,3.248,3.606c3.499,3.302,8.748,7.124,13.647,10.776c3.293,2.485,6.407,4.827,9.278,7.725
		c1.615,1.723,3.329,3.517,4.792,6.962l-0.018-0.036c0.834,2.064,1.122,4.074,1.122,5.868c-0.054,4.082-1.274,6.918-2.494,9.331
		c-1.265,2.395-2.728,4.415-4.306,6.371c-3.15,3.858-6.819,7.394-10.409,10.606c-4.253,3.786-8.353,7.034-11.045,9.098
		c-0.072,0.198-0.099,0.286-0.171,0.502c-0.789,2.459-1.857,5.922-2.915,9.879c-2.136,7.851-4.136,17.873-4.092,24.612
		c-0.027,2.009,0.188,3.607,0.413,4.666c6.119,0,13.899,0,22.548,0l1.283-9.816c0.592-4.53,4.746-7.725,9.269-7.132
		c4.531,0.592,7.725,4.746,7.133,9.269l-1.005,7.68c7.797,0,15.765,0,23.446,0l1.426-10.946c0.593-4.522,4.738-7.716,9.269-7.124
		c4.532,0.593,7.725,4.737,7.134,9.269l-1.149,8.802c6.451,0,12.319,0,17.146,0c3.463-0.062,5.33-0.898,7.555-2.656
		c2.162-1.785,4.414-4.926,6.244-9.178c3.742-8.452,5.402-20.825,5.358-30.237c-0.018-6.793,1.345-13.45,4.881-19.157
		c3.508-5.724,8.864-9.762,14.527-12.346c11.359-5.114,24.62-6.46,41.92-8.192v-0.009c0.044,0,0.08,0,0.125-0.009
		c0.036,0,0.072-0.008,0.108-0.008c1.374-0.135,2.656-0.198,3.787-0.198c8.757-0.045,16.626,3.149,22.781,7.474
		c6.218,4.333,11.179,9.663,15.962,15.083c9.474,10.911,18.357,22.359,30.156,30.004c7.878,5.105,16.932,8.775,29.286,9.824
		l-0.036-0.009c6.128,0.485,12.193,0.754,18.178,0.754c46.352-0.036,88.738-14.913,119.595-44.935
		c30.811-30.057,50.946-75.683,51.017-140.132C496.324,188.432,494.701,168.818,491.228,147.723z M149.411,293.123
		c-17.38,23.167-45.832,14.732-54.024-16.375c-8.192-31.108-24.557-37.649-19.649-60.574c3.068-14.32,22.44-25.894,42.566-16.366
		C149.411,214.542,173.969,260.382,149.411,293.123z"/>
</g>
</svg>