<?xml version="1.0" encoding="utf-8"?>
<!-- Generator: Adobe Illustrator 15.0.0, SVG Export Plug-In . SVG Version: 6.00 Build 0)  -->
<!DOCTYPE svg PUBLIC "-//W3C//DTD SVG 1.1//EN" "http://www.w3.org/Graphics/SVG/1.1/DTD/svg11.dtd">
<svg version="1.1" id="Layer_1" xmlns="http://www.w3.org/2000/svg" xmlns:xlink="http://www.w3.org/1999/xlink" x="0px" y="0px"
	 width="379.34px" height="163.324px" viewBox="0 0 379.34 163.324" enable-background="new 0 0 379.34 163.324"
	 xml:space="preserve">
<g>
	<g>
		<g>
			<path fill="#56ACC2" d="M69.404,19.524c-11.91,0-22.842,4.196-31.401,11.186v23.604c0,6.072,4.396,9.725,10.473,9.725
				c5.577,0,10.716-2.91,10.716-10.468V30.022h10.54v23.979c0,14.006-9.547,18.837-21.134,18.837
				c-12.27,0-21.133-5.701-21.133-18.774V42.571c-4.905,7.7-7.759,16.841-7.759,26.648c0,27.443,22.26,49.688,49.699,49.688
				c27.436,0,49.691-22.244,49.691-49.688C119.095,41.769,96.84,19.524,69.404,19.524 M93.688,104.941
				c-3.29,0-5.96-2.668-5.96-5.961c0-3.288,2.671-5.96,5.96-5.96c3.292,0,5.96,2.672,5.96,5.96
				C99.649,102.273,96.981,104.941,93.688,104.941 M93.688,84.659c-3.29,0-5.96-2.672-5.96-5.964c0-3.286,2.671-5.958,5.96-5.958
				c3.292,0,5.96,2.672,5.96,5.958C99.649,81.987,96.981,84.659,93.688,84.659"/>
		</g>
	</g>
	<g>
		<path fill="#231F20" d="M148.989,32.223c0,3.519-2.684,5.848-6.252,5.848c-3.571,0-6.253-2.329-6.253-5.848V21.515h2.885v10.557
			c0,2,1.418,3.367,3.369,3.367c1.947,0,3.368-1.367,3.368-3.367V21.515h2.885V32.223z"/>
		<path fill="#231F20" d="M164.538,37.843l-7.34-13.291l-0.025,0.025c0.229,1.013,0.279,1.873,0.279,2.708v10.481h-2.734V21.439
			h3.746l7.189,13.189l0.025-0.025c-0.229-1.013-0.277-1.874-0.277-2.709V21.515h2.732v16.329H164.538z"/>
		<path fill="#231F20" d="M173.709,37.767V21.515h2.889v16.252H173.709z"/>
		<path fill="#231F20" d="M185.358,37.843l-4.963-16.329h3.217l3.367,12.151l0.303,1.038h0.078l0.303-1.038l3.416-12.151h3.215
			l-5.037,16.329H185.358z"/>
		<path fill="#231F20" d="M201.237,24.045v4.152h5.568v2.531h-5.568v4.507h5.568v2.532h-8.453V21.515h8.453v2.531H201.237z"/>
		<path fill="#231F20" d="M216.583,31.286h-0.33h-1.291v6.481h-2.885V21.515h5.342c3.088,0,5.24,1.949,5.24,4.683
			c0,2.05-1.139,3.874-3.24,4.506l4.43,7.063h-3.416L216.583,31.286z M216.862,28.78c1.568,0,2.859-0.759,2.859-2.404
			c0-1.621-1.266-2.33-2.834-2.33h-1.926v4.734H216.862z"/>
		<path fill="#231F20" d="M229.729,35.235h8.43v2.532h-12.025v-2.253l8-11.469h-7.621v-2.531h11.191v2.253L229.729,35.235z"/>
		<path fill="#231F20" d="M241.985,37.767V21.515h2.887v16.252H241.985z"/>
		<path fill="#231F20" d="M254.999,24.045v13.722h-2.883V24.045h-3.545v-2.531h10v2.531H254.999z"/>
		<path fill="#231F20" d="M263.688,33.312l-1.469,4.456h-3.088l6-16.328h3.723l5.695,16.328h-3.09l-1.443-4.456H263.688z
			 M266.928,23.818h-0.074l-2.305,6.962h4.656L266.928,23.818z"/>
		<path fill="#231F20" d="M141.875,47.39c3.19,0,5.366,2,5.366,4.886c0,2.937-2.175,4.987-5.366,4.987h-2.277v6.379h-2.888V47.39
			H141.875z M139.597,54.858h1.872c1.595,0,2.835-0.912,2.835-2.557c0-1.646-1.214-2.507-2.809-2.507h-1.898V54.858z"/>
		<path fill="#231F20" d="M152.41,59.188l-1.468,4.455h-3.088l6-16.328h3.721l5.697,16.328h-3.09l-1.443-4.455H152.41z
			 M155.649,49.693h-0.073l-2.304,6.962h4.656L155.649,49.693z"/>
		<path fill="#231F20" d="M171.149,57.162h-0.328h-1.291v6.48h-2.887V47.39h5.344c3.086,0,5.238,1.95,5.238,4.684
			c0,2.05-1.139,3.873-3.24,4.505l4.432,7.063H175L171.149,57.162z M171.428,54.655c1.57,0,2.861-0.759,2.861-2.405
			c0-1.62-1.266-2.329-2.834-2.329h-1.926v4.733H171.428z"/>
		<path fill="#231F20" d="M186.7,47.39c4.963,0,8.43,3.037,8.43,8.076c0,5.038-3.594,8.177-8.557,8.177h-4.758V47.39H186.7z
			 M184.7,61.111h1.9c3.086,0,5.594-2.05,5.594-5.646c0-3.594-2.381-5.544-5.469-5.544H184.7V61.111z"/>
		<path fill="#231F20" d="M211.844,58.099c0,3.52-2.682,5.848-6.254,5.848c-3.568,0-6.252-2.329-6.252-5.848V47.39h2.885v10.557
			c0,2,1.418,3.367,3.367,3.367c1.951,0,3.367-1.368,3.367-3.367V47.39h2.887V58.099z"/>
		<path fill="#231F20" d="M222.813,47.39c2.605,0,4.734,1.722,4.734,4.329c0,1.747-1.141,2.988-2.025,3.469
			c1.164,0.303,2.658,1.797,2.658,3.898c0,2.582-1.977,4.556-4.709,4.556h-6.279V47.39H222.813z M220.079,54.175h2.127
			c1.314,0,2.555-0.861,2.555-2.304c0-1.393-1.164-2.152-2.354-2.152h-2.328V54.175z M220.079,61.314h2.557
			c1.289,0,2.559-0.86,2.559-2.354c0-1.519-1.191-2.481-2.914-2.481h-2.201V61.314z"/>
		<path fill="#231F20" d="M233.249,63.643V47.39h2.887v16.252H233.249z"/>
		<path fill="#231F20" d="M254.415,49.086l-1.568,2.025c-0.861-0.861-2.152-1.494-3.771-1.494c-3.316,0-5.52,2.33-5.52,5.873
			c0,3.545,2.254,5.924,5.441,5.924c1.674,0,3.039-0.759,3.951-1.771l1.621,1.975c-1.342,1.493-3.367,2.329-5.875,2.329
			c-4.531,0-8.127-3.418-8.127-8.456c0-5.012,3.57-8.404,8.508-8.404C251.657,47.087,253.53,48.175,254.415,49.086z"/>
		<path fill="#231F20" d="M261.079,49.922v4.151h5.57v2.533h-5.57v4.505h5.57v2.531h-8.455V47.39h8.455v2.532H261.079z"/>
		<path fill="#56ACC2" d="M139.597,75.797v4.153h5.57v2.53h-5.57v7.038h-2.888V73.267h8.458v2.53H139.597z"/>
		<path fill="#56ACC2" d="M151.473,85.063l-1.468,4.455h-3.087l5.999-16.328h3.723l5.697,16.328h-3.092l-1.443-4.455H151.473z
			 M154.713,75.569h-0.074l-2.305,6.962h4.656L154.713,75.569z"/>
		<path fill="#56ACC2" d="M168.592,81.469v8.05h-2.885V73.267h2.885v7.999l6.002-7.999h3.568l-6.482,7.999l6.887,8.253h-3.822
			L168.592,81.469z"/>
		<path fill="#56ACC2" d="M194.395,83.975c0,3.519-2.684,5.848-6.252,5.848s-6.254-2.329-6.254-5.848V73.267h2.887v10.557
			c0,2,1.418,3.367,3.367,3.367s3.367-1.367,3.367-3.367V73.267h2.885V83.975z"/>
		<path fill="#56ACC2" d="M208.401,86.987v2.531h-8.023V73.267h2.887v13.721H208.401z"/>
		<path fill="#56ACC2" d="M215.747,75.797v13.722h-2.885V75.797h-3.545v-2.53h10v2.53H215.747z"/>
		<path fill="#56ACC2" d="M225.069,85.063l-1.471,4.455h-3.088l6.002-16.328h3.721l5.695,16.328h-3.088l-1.443-4.455H225.069z
			 M228.307,75.569h-0.074l-2.305,6.962h4.658L228.307,75.569z"/>
		<path fill="#56ACC2" d="M139.597,101.672v4.153h5.57v2.531h-5.57v4.506h5.57v2.532h-8.458V99.142h8.458v2.53H139.597z"/>
		<path fill="#56ACC2" d="M158.461,112.862v2.532h-8.025V99.142h2.889v13.721H158.461z"/>
		<path fill="#56ACC2" d="M165.655,101.672v4.153h5.568v2.531h-5.568v4.506h5.568v2.532h-8.453V99.142h8.453v2.53H165.655z"/>
		<path fill="#56ACC2" d="M179.381,107.344v8.051h-2.887V99.142h2.887v7.999l6.002-7.999h3.566l-6.48,7.999l6.885,8.254h-3.82
			L179.381,107.344z"/>
		<path fill="#56ACC2" d="M198.221,101.672v13.723h-2.885v-13.723h-3.545v-2.53h10v2.53H198.221z"/>
		<path fill="#56ACC2" d="M210.633,108.912h-0.332h-1.289v6.482h-2.887V99.142h5.342c3.088,0,5.24,1.949,5.24,4.684
			c0,2.051-1.139,3.873-3.238,4.506l4.428,7.063h-3.418L210.633,108.912z M210.911,106.407c1.57,0,2.859-0.76,2.859-2.405
			c0-1.619-1.264-2.33-2.834-2.33h-1.924v4.735H210.911z"/>
		<path fill="#56ACC2" d="M238.028,107.268c0,5.114-3.695,8.455-8.301,8.455c-4.609,0-8.307-3.341-8.307-8.455
			c0-5.088,3.697-8.455,8.307-8.455C234.333,98.812,238.028,102.18,238.028,107.268z M224.358,107.268
			c0,3.595,2.355,5.898,5.369,5.898c2.986,0,5.365-2.304,5.365-5.898s-2.379-5.924-5.365-5.924
			C226.713,101.344,224.358,103.673,224.358,107.268z"/>
		<path fill="#56ACC2" d="M246.643,101.672v13.723h-2.885v-13.723h-3.545v-2.53h10v2.53H246.643z"/>
		<path fill="#56ACC2" d="M257.432,101.672v4.153h5.57v2.531h-5.57v4.506h5.57v2.532h-8.457V99.142h8.457v2.53H257.432z"/>
		<path fill="#56ACC2" d="M280.981,100.837l-1.572,2.025c-0.857-0.86-2.15-1.492-3.77-1.492c-3.314,0-5.52,2.327-5.52,5.873
			c0,3.543,2.254,5.923,5.443,5.923c1.672,0,3.037-0.761,3.949-1.773l1.621,1.977c-1.342,1.494-3.367,2.329-5.873,2.329
			c-4.533,0-8.129-3.418-8.129-8.455c0-5.014,3.572-8.406,8.508-8.406C278.221,98.837,280.094,99.926,280.981,100.837z"/>
		<path fill="#56ACC2" d="M295.137,115.395v-7.038h-6.859v7.038h-2.885V99.142h2.885v6.684h6.859v-6.684h2.887v16.253H295.137z"/>
		<path fill="#56ACC2" d="M314.055,115.47l-7.34-13.29l-0.025,0.024c0.227,1.013,0.279,1.873,0.279,2.708v10.482h-2.736V99.065
			h3.746l7.191,13.189l0.025-0.025c-0.229-1.013-0.279-1.873-0.279-2.709V99.142h2.734v16.328H314.055z"/>
		<path fill="#56ACC2" d="M323.86,115.395V99.142h2.885v16.253H323.86z"/>
		<path fill="#56ACC2" d="M335.838,107.344v8.051h-2.887V99.142h2.887v7.999l5.998-7.999h3.57l-6.48,7.999l6.887,8.254h-3.824
			L335.838,107.344z"/>
		<path fill="#56ACC2" d="M356.551,115.395h-2.885v-6.381l-5.266-9.872h3.24l3.164,6.126l0.379,0.684
			c0.129-0.229,0.254-0.456,0.381-0.684l3.189-6.126h3.242l-5.445,9.872V115.395z"/>
		<path fill="#56ACC2" d="M139.394,136.814l-1.47,4.456h-3.087l6.001-16.33h3.72l5.697,16.33h-3.089l-1.443-4.456H139.394z
			 M142.635,127.321h-0.077l-2.304,6.962h4.659L142.635,127.321z"/>
		<path fill="#56ACC2" d="M164.137,141.271v-16.254h2.887v16.254H164.137z"/>
		<path fill="#56ACC2" d="M183.051,141.347l-7.342-13.292l-0.025,0.025c0.229,1.013,0.277,1.873,0.277,2.71v10.48h-2.734v-16.33
			h3.748l7.188,13.19l0.027-0.025c-0.227-1.013-0.279-1.874-0.279-2.709v-10.38h2.734v16.33H183.051z"/>
		<path fill="#56ACC2" d="M195.743,127.549v4.151h5.568v2.532h-5.568v7.038h-2.887v-16.254h8.455v2.532H195.743z"/>
		<path fill="#56ACC2" d="M221.922,133.144c0,5.113-3.695,8.455-8.303,8.455c-4.609,0-8.305-3.342-8.305-8.455
			c0-5.089,3.695-8.456,8.305-8.456C218.227,124.688,221.922,128.055,221.922,133.144z M208.25,133.144
			c0,3.595,2.357,5.898,5.369,5.898c2.986,0,5.367-2.304,5.367-5.898c0-3.596-2.381-5.924-5.367-5.924
			C210.608,127.22,208.25,129.548,208.25,133.144z"/>
		<path fill="#56ACC2" d="M231.499,134.789h-0.328h-1.293v6.481h-2.885v-16.254h5.342c3.088,0,5.24,1.949,5.24,4.685
			c0,2.05-1.139,3.872-3.24,4.506l4.43,7.063h-3.416L231.499,134.789z M231.778,132.283c1.57,0,2.861-0.76,2.861-2.405
			c0-1.621-1.268-2.329-2.836-2.329h-1.926v4.734H231.778z"/>
		<path fill="#56ACC2" d="M258.415,141.271l-0.885-11.898c-0.025-0.33-0.053-0.634-0.025-1.216h-0.027l-4.529,13.013h-2.533
			l-4.379-13.038h-0.025c0.025,0.582,0,0.911-0.025,1.241l-0.885,11.898h-2.76l1.518-16.33h3.723l4.152,12.279h0.051l4.303-12.279
			h3.695l1.494,16.33H258.415z"/>
		<path fill="#56ACC2" d="M269.083,136.814l-1.469,4.456h-3.088l5.998-16.33h3.723l5.695,16.33h-3.09l-1.441-4.456H269.083z
			 M272.325,127.321h-0.08l-2.303,6.962h4.66L272.325,127.321z"/>
		<path fill="#56ACC2" d="M287.618,127.549v13.722h-2.885v-13.722h-3.543v-2.532h9.998v2.532H287.618z"/>
		<path fill="#56ACC2" d="M295.52,141.271v-16.254h2.887v16.254H295.52z"/>
		<path fill="#56ACC2" d="M307.5,133.22v8.051h-2.889v-16.254h2.889v8l6-8h3.568l-6.48,8l6.885,8.254h-3.822L307.5,133.22z"/>
		<path fill="#56ACC2" d="M328.213,141.271h-2.887v-6.381l-5.264-9.873h3.238l3.166,6.127l0.379,0.684
			c0.127-0.228,0.254-0.456,0.381-0.684l3.189-6.127h3.24l-5.443,9.873V141.271z"/>
	</g>
</g>
</svg>
